<mxfile host="app.diagrams.net" modified="2023-10-18T18:40:23.450Z" agent="Mozilla/5.0 (Windows NT 10.0; Win64; x64) AppleWebKit/537.36 (KHTML, like Gecko) Chrome/118.0.0.0 Safari/537.36" version="21.8.2" etag="0iSOjzszlO5SRa3FIYMA" type="github">
  <diagram name="Page-1" id="GlHR_RN_kJClvJZey4lD">
    <mxGraphModel>
      <root>
        <mxCell id="0" />
        <mxCell id="1" parent="0" />
      </root>
    </mxGraphModel>
  </diagram>
</mxfile>
